<?xml version="1.0" encoding="UTF-8"?>
<svg version="1.1" xmlns="http://www.w3.org/2000/svg" width="217" height="55">
<path d="M0 0 C2 1.5625 2 1.5625 3 3 C3.33 2.525625 3.66 2.05125 4 1.5625 C7.02068556 -0.79741059 10.26982367 -1.12385351 14 -1 C16.922133 0.20696798 18.43319278 1.10249349 20.12060547 3.77441406 C21.18407007 6.46584752 21.22742926 8.53136629 21.1953125 11.421875 C21.18886719 12.44667969 21.18242187 13.47148437 21.17578125 14.52734375 C21.15902344 15.59082031 21.14226562 16.65429688 21.125 17.75 C21.11597656 18.82894531 21.10695312 19.90789063 21.09765625 21.01953125 C21.07411305 23.67991278 21.04122799 26.33984336 21 29 C18.36 29 15.72 29 13 29 C12.505 18.605 12.505 18.605 12 8 C10.68 7.67 9.36 7.34 8 7 C4.83096637 8.60672068 4.83096637 8.60672068 4.56762695 11.06298828 C4.54144287 11.89040527 4.51525879 12.71782227 4.48828125 13.5703125 C4.45283203 14.46621094 4.41738281 15.36210937 4.38085938 16.28515625 C4.35830078 17.22230469 4.33574219 18.15945312 4.3125 19.125 C4.27833984 20.06988281 4.24417969 21.01476562 4.20898438 21.98828125 C4.12636961 24.32509883 4.06151232 26.66253175 4 29 C1.03 29 -1.94 29 -5 29 C-5 21.74 -5 14.48 -5 7 C-7.31 7 -9.62 7 -12 7 C-12.7795458 9.80747455 -13.1710149 12.42029808 -13.31640625 15.328125 C-13.35830078 16.12734375 -13.40019531 16.9265625 -13.44335938 17.75 C-13.50233398 18.9875 -13.50233398 18.9875 -13.5625 20.25 C-13.60568359 21.09046875 -13.64886719 21.9309375 -13.69335938 22.796875 C-13.79908543 24.86440671 -13.90001295 26.93218281 -14 29 C-16.64 29 -19.28 29 -22 29 C-22 19.43 -22 9.86 -22 0 C-19.36 0 -16.72 0 -14 0 C-13.67 0.66 -13.34 1.32 -13 2 C-12.34 1.484375 -11.68 0.96875 -11 0.4375 C-6.75544092 -1.59635123 -4.57481267 -1.03302222 0 0 Z " fill="#1E1E1E" transform="translate(119,16)"/>
<path d="M0 0 C2.33294775 -0.04241723 4.66702567 -0.04092937 7 0 C8.81712921 1.81712921 8.1303453 4.67438705 8.140625 7.1171875 C8.15996094 8.36371094 8.17929688 9.61023438 8.19921875 10.89453125 C8.2329713 13.54021209 8.25129431 16.18613641 8.25390625 18.83203125 C8.27839844 20.08113281 8.30289063 21.33023437 8.328125 22.6171875 C8.34214355 24.34364502 8.34214355 24.34364502 8.35644531 26.10498047 C8.72588704 29.17943424 8.72588704 29.17943424 11.34277344 30.90673828 C14.71159952 32.29277312 16.54745569 32.0741249 20 31 C22.32452624 27.51321064 22.29773734 25.93032429 22.4140625 21.80078125 C22.45273438 20.59228516 22.49140625 19.38378906 22.53125 18.13867188 C22.5621875 16.87603516 22.593125 15.61339844 22.625 14.3125 C22.66367188 13.03826172 22.70234375 11.76402344 22.7421875 10.45117188 C22.83657686 7.30092708 22.9221583 4.15069009 23 1 C25.92824652 0.02391783 27.95613276 -0.08226668 31 0 C31.09935088 4.30495015 31.17169268 8.60928183 31.21972656 12.91503906 C31.23976332 14.37772252 31.26700104 15.84032666 31.30175781 17.30273438 C31.35063225 19.4129601 31.37304659 21.52212136 31.390625 23.6328125 C31.41157227 24.90012207 31.43251953 26.16743164 31.45410156 27.47314453 C30.91709044 31.64393089 29.61450224 33.74771224 27 37 C21.82115673 40.78939751 16.17265381 40.68891226 10 40 C6.3172114 38.61895428 3.45963715 37.10691008 1 34 C-0.17942085 30.46173745 -0.11289189 27.65851274 -0.09765625 23.92578125 C-0.0962413 23.2419487 -0.09482635 22.55811615 -0.09336853 21.8535614 C-0.08777876 19.67316278 -0.07522822 17.49286749 -0.0625 15.3125 C-0.05748367 13.83268378 -0.052921 12.35286594 -0.04882812 10.87304688 C-0.03781271 7.24866443 -0.02055512 3.6243423 0 0 Z " fill="#1C1C1C" transform="translate(148,6)"/>
<path d="M0 0 C3.01841396 3.75015067 3.72907198 7.80718128 4.0625 12.5625 C3.7325 13.5525 3.4025 14.5425 3.0625 15.5625 C-2.8775 15.5625 -8.8175 15.5625 -14.9375 15.5625 C-13.9475 17.2125 -12.9575 18.8625 -11.9375 20.5625 C-9.89464939 21.16274521 -9.89464939 21.16274521 -7.75 20.875 C-6.491875 20.771875 -5.23375 20.66875 -3.9375 20.5625 C-3.6075 19.5725 -3.2775 18.5825 -2.9375 17.5625 C-0.5 18.375 -0.5 18.375 2.0625 19.5625 C2.3925 20.5525 2.7225 21.5425 3.0625 22.5625 C-0.92471867 26.765244 -2.85932826 28.42622644 -8.75 28.8125 C-12.81056094 28.74544487 -15.49938674 27.8285292 -18.9375 25.5625 C-23.04287006 21.12426209 -24.2529482 17.76848033 -24.15234375 11.6875 C-23.66770247 6.89395718 -21.91118013 3.51121397 -18.5 0.1875 C-12.6513566 -3.52139582 -6.10395744 -2.987043 0 0 Z M-13.8125 5.9375 C-15.12723666 7.50716014 -15.12723666 7.50716014 -14.9375 9.5625 C-11.3075 9.5625 -7.6775 9.5625 -3.9375 9.5625 C-4.5975 7.9125 -5.2575 6.2625 -5.9375 4.5625 C-10.1484755 4.17821652 -10.1484755 4.17821652 -13.8125 5.9375 Z " fill="#272727" transform="translate(57.9375,17.4375)"/>
<path d="M0 0 C3.25161794 2.357423 4.32350033 4.12784475 5 8 C5.06898242 10.59373914 5.09434752 13.15810197 5.0625 15.75 C5.05798828 16.44738281 5.05347656 17.14476563 5.04882812 17.86328125 C5.0371002 19.57555803 5.01916653 21.28779033 5 23 C5.99 23 6.98 23 8 23 C8 24.98 8 26.96 8 29 C4.2983569 29.94693195 2.60887535 30.30443767 -0.875 28.5625 C-1.57625 28.046875 -2.2775 27.53125 -3 27 C-3.515625 27.495 -4.03125 27.99 -4.5625 28.5 C-7.87832303 30.54050648 -10.16691031 30.34224015 -14 30 C-16.63761924 29.14455592 -17.64462647 28.49752294 -19.25 26.25 C-20.62055279 22.13834162 -20.5995936 19.22773927 -18.6875 15.3125 C-14.66733588 11.85328901 -10.11033517 11.08374349 -5 10 C-4.67 8.68 -4.34 7.36 -4 6 C-10.22414458 7.38810249 -10.22414458 7.38810249 -16 10 C-16.99 8.68 -17.98 7.36 -19 6 C-18.5 4.1875 -18.5 4.1875 -17 2 C-11.2136672 -0.9439237 -6.32096169 -1.84154002 0 0 Z M-11 18 C-12.22292585 19.96323357 -12.22292585 19.96323357 -12 22 C-11.34 22.66 -10.68 23.32 -10 24 C-7.46048456 23.90888062 -7.46048456 23.90888062 -5 23 C-2.8480563 19.77208445 -2.79913557 18.71599191 -3 15 C-5.82567151 15 -8.55855194 16.77927597 -11 18 Z " fill="#242424" transform="translate(85,16)"/>
<path d="M0 0 C1.125 5.75 1.125 5.75 0 8 C-3.63 8 -7.26 8 -11 8 C-10.67 9.32 -10.34 10.64 -10 12 C-9.91879767 14.0976396 -9.89244192 16.19768762 -9.90234375 18.296875 C-9.90556641 19.50214844 -9.90878906 20.70742188 -9.91210938 21.94921875 C-9.92048828 23.20347656 -9.92886719 24.45773438 -9.9375 25.75 C-9.94201172 27.01972656 -9.94652344 28.28945313 -9.95117188 29.59765625 C-9.96295444 32.73181836 -9.97940584 35.86588541 -10 39 C-12.97 39 -15.94 39 -19 39 C-19 28.77 -19 18.54 -19 8 C-22.3 8 -25.6 8 -29 8 C-29.66 5.69 -30.32 3.38 -31 1 C-26.5833785 0.83212195 -22.16669597 0.66590635 -17.75 0.5 C-16.49574219 0.45230469 -15.24148437 0.40460937 -13.94921875 0.35546875 C-12.74394531 0.31035156 -11.53867187 0.26523438 -10.296875 0.21875 C-9.18666992 0.17685547 -8.07646484 0.13496094 -6.93261719 0.09179688 C-4.6226736 0.01949095 -2.31107497 0 0 0 Z " fill="#242424" transform="translate(31,6)"/>
<path d="M0 0 C4.29151653 2.67027695 7.06772533 5.94891926 8.55859375 10.828125 C9.93404267 17.59582059 9.80640533 24.24331122 6.2578125 30.2734375 C4.0428157 33.31389895 2.26026223 34.99368478 -1 37 C-3.80961314 37.3905058 -6.1433877 37.24625968 -9 37 C-9 34.69 -9 32.38 -9 30 C-3.25 27 -3.25 27 -1 27 C0.45383907 18.07834179 0.45383907 18.07834179 -3 10 C-5.90092502 8.06604999 -6.89674737 7.69868059 -10.1875 7.375 C-11.445625 7.25125 -12.70375 7.1275 -14 7 C-14 5.35 -14 3.7 -14 2 C-9.05530945 -1.0904316 -5.49243893 -1.66815811 0 0 Z " fill="#212121" transform="translate(208,2)"/>
<path d="M0 0 C0.66 0 1.32 0 2 0 C3.03502777 3.26651375 4.05053935 6.53877363 5.0625 9.8125 C5.35705078 10.74126953 5.65160156 11.67003906 5.95507812 12.62695312 C6.22900391 13.51962891 6.50292969 14.41230469 6.78515625 15.33203125 C7.04176025 16.15421143 7.29836426 16.9763916 7.56274414 17.82348633 C8 20 8 20 7 23 C6.67 23 6.34 23 6 23 C5.67 29.27 5.34 35.54 5 42 C2.36 42 -0.28 42 -3 42 C-3 35.4 -3 28.8 -3 22 C-3.99 21.67 -4.98 21.34 -6 21 C-5.38120598 18.24846929 -4.75523814 15.49891102 -4.125 12.75 C-3.95097656 11.97269531 -3.77695313 11.19539063 -3.59765625 10.39453125 C-3.42363281 9.64042969 -3.24960938 8.88632813 -3.0703125 8.109375 C-2.91320801 7.41811523 -2.75610352 6.72685547 -2.59423828 6.01464844 C-1.95653155 3.85262875 -1.06200166 1.98395915 0 0 Z " fill="#262626" transform="translate(191,7)"/>
</svg>
